<?xml version="1.0" encoding="utf-8"?>
<!-- Generator: Adobe Illustrator 19.1.0, SVG Export Plug-In . SVG Version: 6.00 Build 0)  -->
<svg version="1.1" id="Layer_1" xmlns="http://www.w3.org/2000/svg" xmlns:xlink="http://www.w3.org/1999/xlink" x="0px" y="0px"
	 viewBox="0 0 176.9 75.9" style="enable-background:new 0 0 176.9 75.9;" xml:space="preserve">
<style type="text/css">
	.st0{fill:#D9C5E0;}
	.st1{fill:#903F98;}
	.st2{fill:#BC95C4;}
	.st3{fill:#FFE3AE;}
	.st4{fill:#F6EEDB;}
	.st5{fill:#FFE8BD;}
	.st6{fill:#FFFFFF;}
	.st7{fill:#F0E2BD;}
	.st8{fill:#EDDCAE;}
	.st9{fill:#F7941E;}
	.st10{fill:#F2E7C9;}
	.st11{fill:#FFF5E4;}
	.st12{fill:#FFECC9;}
	.st13{fill:#FFF2DB;}
	.st14{fill:#FFF4E2;}
	.st15{fill:none;stroke:#FFFFFF;}
	.st16{fill:#F2E7C8;}
	.st17{fill:#F5ECD4;}
	.st18{fill:#F7F1E1;}
	.st19{fill:#FBF7EE;}
	.st20{fill:none;}
	.st21{fill:#555655;}
	.st22{fill:#E2567E;stroke:#E2567E;stroke-width:2;stroke-miterlimit:10;}
	.st23{fill:#E2D828;}
	.st24{fill:#E2D829;}
	.st25{fill:#D67B54;stroke:#D67B54;stroke-width:2;stroke-miterlimit:10;}
	.st26{fill:#D67B54;}
	.st27{fill:#702B20;}
	.st28{fill:#B69F31;}
	.st29{opacity:0.75;}
	.st30{fill:#453014;}
	.st31{fill:#E12E26;stroke:#E12F27;stroke-width:0.5;stroke-miterlimit:10;}
	.st32{fill:#E12E26;}
	.st33{fill:#453014;stroke:#000000;stroke-miterlimit:10;}
</style>
<symbol  id="Deleted_Symbol_1" viewBox="-34 -60.2 68.1 120.4">
	<g>
		<g>
			<path class="st0" d="M-21.4-54.6c0-0.2,0-0.4-0.1-0.6c0.5-2.8,10-4.9,21.6-4.9c11.6,0,21.1,2.2,21.6,4.9c0,0.2,0,0.4,0,0.6"/>
			<path class="st1" d="M0.1-59.3c11.6,0,21.1,2.2,21.6,4.9c0,0.2,0,0.4,0,0.6C20.8-51.1,11.5-49,0.1-49c-11.4,0-20.7-2.1-21.5-4.8
				c0-0.2,0-0.4-0.1-0.6C-21-57.1-11.5-59.3,0.1-59.3z"/>
			<path class="st2" d="M2.2-49.5c9.3-0.1,17-1.8,17.8-4c0-0.2,0-0.3,0.1-0.5c0-0.9-1.2-1.8-3.2-2.6c-1.1-0.4-2.6-0.8-4.2-1.1
				C9.6-58.2,6-58.4,2-58.4c-9.5,0.1-17.3,1.9-17.9,4.2c0,0.2,0,0.4,0,0.5c0.1,0.8,1.1,1.5,2.7,2.2c1.1,0.5,2.6,0.9,4.3,1.2
				C-5.8-49.8-2-49.5,2.2-49.5z"/>
			<path class="st3" d="M4.2-50.1c7.3-0.2,13.3-1.5,14.1-3.3c0-0.1,0-0.3,0.1-0.4c0.2-0.8-0.6-1.6-2.1-2.3c-0.9-0.4-2.1-0.8-3.6-1
				c-2.4-0.4-5.5-0.5-8.7-0.4c-7.4,0.2-13.5,1.6-14.1,3.4c0,0.1,0,0.3-0.1,0.4c-0.1,0.7,0.6,1.3,1.8,1.9c0.9,0.4,2.1,0.8,3.6,1.1
				C-2.3-50.2,0.8-50,4.2-50.1z"/>
			<path class="st4" d="M6.3-50.7c5.2-0.2,9.6-1.2,10.3-2.6c0-0.1,0-0.2,0.1-0.3c0.3-0.7-0.1-1.3-1.1-2c-0.6-0.4-1.6-0.7-2.9-0.9
				c-1.9-0.3-4.3-0.3-6.8-0.2c-5.4,0.3-9.8,1.3-10.4,2.7c0,0.1-0.1,0.2-0.1,0.3c-0.2,0.6,0.1,1.2,0.9,1.7c0.6,0.4,1.6,0.8,2.9,1
				C1.2-50.7,3.6-50.6,6.3-50.7z"/>
			<path class="st5" d="M8.4-51.3c3.2-0.3,5.9-1,6.6-1.8c0-0.1,0-0.1,0.1-0.2c0.5-0.6,0.5-1.1-0.1-1.6c-0.4-0.4-1.1-0.7-2.2-0.8
				c-1.4-0.2-3.1-0.1-5,0c-3.3,0.3-6,1-6.6,1.9C1.1-53.7,1-53.7,1-53.6c-0.4,0.5-0.4,1,0.1,1.4c0.4,0.4,1.1,0.7,2.2,0.9
				C4.7-51.1,6.4-51.1,8.4-51.3z"/>
			<path class="st6" d="M5.8-52.3c0.1,0.4,0.7,0.7,1.5,0.7c0.8,0.1,1.9,0,3.1-0.3c1.2-0.3,2.2-0.7,2.9-1.2c0.7-0.5,1.1-0.9,1-1.3
				c-0.1-0.4-0.7-0.7-1.5-0.7c-0.8-0.1-1.9,0-3.1,0.3c-1.2,0.3-2.2,0.7-2.9,1.2C6.1-53.2,5.7-52.7,5.8-52.3z"/>
		</g>
		<g>
			<g>
			</g>
			<path class="st7" d="M2.1-10.2l-0.3-42c0.6,0.2,1,0.6,1,1.4l1,38.5C3.8-11.4,3-10.7,2.1-10.2z"/>
			<path class="st6" d="M0.4-9.7L0.2-52.4c0.6,0,1.1,0,1.6,0.2l0.3,42C1.6-9.9,0.9-9.7,0.4-9.7z"/>
		</g>
		<g>
			<g>
				<path class="st1" d="M-3.5-12.3l1-38.5c0-1.1,0.6-1.4,1.6-1.6L-1.5-10C-2.5-10.5-3.5-11.3-3.5-12.3z"/>
				<path class="st8" d="M0.1-9.6c-0.5,0-1.1-0.1-1.6-0.4l0.5-42.3c0.3,0,0.7-0.1,1.1-0.1c0,0,0.1,0,0.1,0L0.4-9.7
					C0.3-9.6,0.2-9.6,0.1-9.6z"/>
			</g>
			<path class="st1" d="M-26.9,10.1c-3.9,1.3-6.3,2.8-6.6,4.4c0-0.4,0-0.8,0-1.2c0-3.7,0.9-7.3,2.6-10.5c1.7-3.2,4.2-6.1,7.2-8.6
				c5.3-4.3,12.4-7.1,20.4-7.8C-21.4-8.4-26.3,1.7-26.9,10.1z"/>
			<path class="st2" d="M33.5,14.5C32.8,10.3,18.1,6.9,0,6.9c-11,0-20.8,1.3-26.9,3.2c0.6-8.4,5.6-18.5,23.6-23.6
				c1.1-0.1,2.2-0.1,3.4-0.1c9.3,0,17.7,3,23.7,7.9c3,2.4,5.5,5.4,7.2,8.6c1.7,3.2,2.6,6.8,2.6,10.5C33.6,13.8,33.6,14.1,33.5,14.5z
				"/>
		</g>
		<g>
			<path class="st9" d="M33.4,14.9c0,0.2,0,0.4-0.1,0.6c0-0.3,0.1-0.7,0.1-1C33.3,14.6,33.4,14.8,33.4,14.9z"/>
		</g>
		<g>
			<path class="st8" d="M-22.8,12.1c0-0.3-0.1-0.7-0.1-1C-23,7.9-22.3,4.9-21,2.1c0.2-0.4,0.3-0.7,0.5-1.1c1.3-2.4,3.1-4.6,5.3-6.4
				c5-4,11.9-6.4,19.5-6.4C12-11.6,19-9,24-4.9c2.6,2.1,4.6,4.6,6,7.4c0.3,0.6,0.6,1.1,0.8,1.7c0.9,2.3,1.4,4.8,1.3,7.2
				c0,0.3,0,0.6-0.1,1C24.4,8.4,20,8.3,4.4,6.9C-10.2,5.6-22,8.8-22.8,12.1z"/>
			<path class="st7" d="M-12,9.6c0-0.3-0.1-0.5-0.1-0.8c-0.3-2.6,0.1-5.1,1.1-7.4c0.1-0.3,0.3-0.6,0.4-0.9c0.9-2,2.3-3.9,4.2-5.4
				c3.9-3.1,9.3-5,15.3-4.8c6,0.1,11.4,2.2,15.4,5.6c2.1,1.8,3.8,3.9,4.9,6.2c0.2,0.5,0.4,1,0.6,1.4c0.7,2,1,4,0.8,6
				c0,0.3-0.1,0.5-0.1,0.8C29.8,8,20.6,6,9.3,5.8C-1.9,5.7-11.2,7.4-12,9.6z"/>
			<path class="st10" d="M-1.2,7.1c-0.1-0.2-0.1-0.4-0.1-0.6c-0.4-2-0.3-4,0.3-5.8C-1,0.5-0.9,0.2-0.8,0c0.6-1.7,1.6-3.2,3-4.4
				c2.8-2.3,6.7-3.5,11-3.3c4.3,0.2,8.3,1.8,11.2,4.5c1.7,1.5,2.9,3.2,3.8,5c0.2,0.4,0.3,0.8,0.5,1.1c0.5,1.6,0.7,3.2,0.4,4.7
				c0,0.2-0.1,0.4-0.1,0.6C28.3,6.9,21.8,5.5,14,5.3C6.2,5.1-0.3,6-1.2,7.1z"/>
			<path class="st4" d="M9.6,4.6C9.6,4.5,9.5,4.3,9.5,4.2C8.9,2.7,8.8,1.3,8.9,0C9-0.2,9-0.4,9-0.6C9.3-1.9,9.8-3.2,10.9-4
				c1.7-1.4,4.1-2,6.8-1.7c2.6,0.3,5.2,1.5,7.1,3.3c1.2,1.2,2.1,2.5,2.6,3.9c0.1,0.3,0.2,0.6,0.3,0.9c0.3,1.3,0.3,2.5,0,3.5
				c0,0.1-0.1,0.3-0.2,0.4c-0.7-0.4-4.3-1.1-8.7-1.4C14.3,4.5,10.5,4.6,9.6,4.6z"/>
			<path class="st6" d="M20.4,2.1c-0.9-1.1-1.4-2.2-1.6-3.3c-0.2-1,0-1.9,0.7-2.4c0.6-0.5,1.5-0.6,2.5-0.2c1,0.4,2,1.1,2.9,2.2
				c0.9,1.1,1.4,2.2,1.6,3.3c0.2,1,0,1.9-0.7,2.4c-0.6,0.5-1.5,0.6-2.5,0.2C22.4,3.9,21.3,3.2,20.4,2.1z"/>
		</g>
		<path class="st0" d="M0,6.9c18.1,0,32.8,3.4,33.5,7.7c0,0.3,0,0.7-0.1,1c-1.4,4.1-15.8,7.4-33.5,7.4c-17.7,0-32.1-3.3-33.5-7.4
			c0-0.3-0.1-0.7-0.1-1C-32.8,10.3-18.1,6.9,0,6.9z"/>
		<path class="st11" d="M-2.7,20.5c14.5,0,26.4-2.3,27.5-5.2c0-0.2,0-0.4,0.1-0.7c-0.6-3-12.5-7.2-27.4-7.2s-27.8,2.6-27.8,7.2
			c0,0.2,0,0.4,0.1,0.7C-29.1,18.2-17.2,20.5-2.7,20.5z"/>
		<g>
			<path class="st3" d="M27,10.2l-4.7-1.3l-8.4-1.3L0.4,6.9l-14.7,0.6l-13.8,3c-1.2,1.2,0,2.1,0,2.1c2.4,2.4,13.3,4.3,28.2,4.3
				c14.9,0,25.6-2.5,28.2-4.3C28.3,12.6,31.1,10.6,27,10.2z"/>
			<path class="st5" d="M-2.5,16.7c12.6,0,23-1.7,23.9-3.8c0-0.2,0-0.3,0.1-0.5c-0.5-2.2-11-3.9-23.9-3.9s-23.4,1.8-23.9,3.9
				c0,0.2,0,0.3,0.1,0.5C-25.4,15-15.1,16.7-2.5,16.7z"/>
			<path class="st12" d="M-5,16.4c10.4,0,18.9-1.5,19.6-3.3c0-0.1,0-0.2,0-0.4c-0.4-1.9-9-3.4-19.6-3.4c-10.6,0-19.2,1.5-19.6,3.4
				c0,0.1,0,0.2,0,0.4C-23.8,15-15.4,16.4-5,16.4z"/>
			<path class="st13" d="M-7.5,16.2c8.1,0,14.8-1.2,15.3-2.8c0-0.1,0-0.2,0-0.3c-0.3-1.6-7-2.9-15.3-2.9c-8.3,0-15.1,1.3-15.3,2.9
				c0,0.1,0,0.2,0,0.3C-22.3,14.9-15.6,16.2-7.5,16.2z"/>
			<path class="st14" d="M-10,15.9c5.9,0,10.7-1,11-2.3c0-0.1,0-0.1,0-0.2c-0.1-1.3-5-2.4-11-2.4s-10.9,1.1-11,2.4
				c0,0.1,0,0.1,0,0.2C-20.7,14.9-15.9,15.9-10,15.9z"/>
			<path class="st6" d="M-5.9,13.8c0-1-3-1.8-6.7-1.8c-3.7,0-6.7,0.8-6.7,1.8c0,1,3,1.8,6.7,1.8C-8.9,15.7-5.9,14.8-5.9,13.8z"/>
		</g>
		<path class="st15" d="M0,6.9c18.1,0,32.8,3.4,33.5,7.7c0,0.3,0,0.7-0.1,1c-1.4,4.1-15.8,7.4-33.5,7.4c-17.7,0-32.1-3.3-33.5-7.4
			c0-0.3-0.1-0.7-0.1-1C-32.8,10.3-18.1,6.9,0,6.9z"/>
	</g>
	<g>
		<path class="st7" d="M2.2,20.8c0-3.7-3-6.7-6.7-6.7c-3.7,0-6.7,3-6.7,6.7c0,3.7,3,6.7,6.7,6.7C-0.8,27.4,2.2,24.4,2.2,20.8z"/>
		<path class="st16" d="M2,21c0-3.3-2.6-5.9-5.9-5.9c-3.3,0-5.9,2.6-5.9,5.9s2.6,5.9,5.9,5.9C-0.7,26.9,2,24.2,2,21z"/>
		<path class="st17" d="M1.7,21.2c0-2.9-2.3-5.2-5.2-5.2c-2.9,0-5.2,2.3-5.2,5.2c0,2.9,2.3,5.2,5.2,5.2C-0.6,26.4,1.7,24,1.7,21.2z"
			/>
		<path class="st18" d="M1.5,21.4c0-2.5-2-4.4-4.4-4.4c-2.4,0-4.4,2-4.4,4.4s2,4.4,4.4,4.4C-0.5,25.8,1.5,23.8,1.5,21.4z"/>
		<path class="st19" d="M1.3,21.6c0-2-1.7-3.7-3.7-3.7c-2,0-3.7,1.7-3.7,3.7c0,2,1.7,3.7,3.7,3.7C-0.4,25.3,1.3,23.6,1.3,21.6z"/>
		<path class="st6" d="M1,21.8c0-1.6-1.3-3-3-3c-1.6,0-3,1.3-3,3c0,1.6,1.3,3,3,3C-0.3,24.8,1,23.4,1,21.8z"/>
	</g>
	<g>
		<path class="st7" d="M15.2,45.5c0-1.6-1.3-2.9-2.9-2.9c-1.6,0-2.9,1.3-2.9,2.9s1.3,2.9,2.9,2.9C13.9,48.4,15.2,47.1,15.2,45.5z"/>
		<path class="st16" d="M15.1,45.6c0-1.1-1.2-2.1-2.6-2.1c-1.4,0-2.6,0.9-2.6,2.1c0,1.1,1.2,2.1,2.6,2.1
			C13.9,47.6,15.1,46.7,15.1,45.6z"/>
		<path class="st17" d="M15,45.7c0-0.7-1-1.2-2.3-1.2c-1.3,0-2.3,0.6-2.3,1.2c0,0.7,1,1.2,2.3,1.2C14,46.9,15,46.3,15,45.7z"/>
		<path class="st18" d="M14.9,45.8c0-0.2-0.9-0.4-1.9-0.4c-1.1,0-1.9,0.2-1.9,0.4c0,0.2,0.9,0.4,1.9,0.4C14,46.1,14.9,46,14.9,45.8z
			"/>
		<path class="st19" d="M14.8,45.8c0,0.2-0.7,0.5-1.6,0.5c-0.9,0-1.6-0.2-1.6-0.5c0-0.3,0.7-0.5,1.6-0.5
			C14.1,45.4,14.8,45.6,14.8,45.8z"/>
		<path class="st6" d="M14.7,45.9c0-0.7-0.6-1.3-1.3-1.3c-0.7,0-1.3,0.6-1.3,1.3c0,0.7,0.6,1.3,1.3,1.3
			C14.1,47.2,14.7,46.7,14.7,45.9z"/>
	</g>
	<g>
		<path class="st7" d="M-10.5,35.1c0-1.6-1.3-2.9-2.9-2.9c-1.6,0-2.9,1.3-2.9,2.9c0,1.6,1.3,2.9,2.9,2.9
			C-11.8,38-10.5,36.7-10.5,35.1z"/>
		<path class="st16" d="M-10.6,35.2c0-1.1-1.2-2.1-2.6-2.1c-1.4,0-2.6,0.9-2.6,2.1c0,1.1,1.2,2.1,2.6,2.1
			C-11.8,37.2-10.6,36.3-10.6,35.2z"/>
		<path class="st17" d="M-10.7,35.3c0-0.7-1-1.2-2.3-1.2c-1.3,0-2.3,0.6-2.3,1.2c0,0.7,1,1.2,2.3,1.2
			C-11.7,36.5-10.7,35.9-10.7,35.3z"/>
		<path class="st18" d="M-10.8,35.4c0-0.2-0.9-0.4-1.9-0.4c-1.1,0-1.9,0.2-1.9,0.4c0,0.2,0.9,0.4,1.9,0.4
			C-11.7,35.7-10.8,35.6-10.8,35.4z"/>
		<path class="st19" d="M-10.9,35.4c0,0.3-0.7,0.5-1.6,0.5s-1.6-0.2-1.6-0.5s0.7-0.5,1.6-0.5S-10.9,35.2-10.9,35.4z"/>
		<path class="st6" d="M-11,35.5c0-0.7-0.6-1.3-1.3-1.3c-0.7,0-1.3,0.6-1.3,1.3c0,0.7,0.6,1.3,1.3,1.3C-11.6,36.8-11,36.2-11,35.5z"
			/>
	</g>
	<g>
		<path class="st7" d="M-8.2,57.8c0-1.3-1-2.3-2.3-2.3c-1.3,0-2.3,1-2.3,2.3c0,1.3,1,2.3,2.3,2.3C-9.2,60.2-8.2,59.1-8.2,57.8z"/>
		<path class="st16" d="M-8.2,57.9c0-1.1-0.9-2.1-2.1-2.1c-1.1,0-2.1,0.9-2.1,2.1c0,1.1,0.9,2.1,2.1,2.1C-9.2,60-8.2,59.1-8.2,57.9z
			"/>
		<path class="st17" d="M-8.3,58c0-1-0.8-1.8-1.8-1.8c-1,0-1.8,0.8-1.8,1.8c0,1,0.8,1.8,1.8,1.8C-9.1,59.8-8.3,59-8.3,58z"/>
		<path class="st18" d="M-8.4,58.1c0-0.9-0.7-1.6-1.6-1.6c-0.9,0-1.6,0.7-1.6,1.6c0,0.9,0.7,1.6,1.6,1.6
			C-9.1,59.6-8.4,58.9-8.4,58.1z"/>
		<path class="st19" d="M-8.5,58.1c0-0.7-0.6-1.3-1.3-1.3c-0.7,0-1.3,0.6-1.3,1.3c0,0.7,0.6,1.3,1.3,1.3
			C-9.1,59.4-8.5,58.9-8.5,58.1z"/>
		<path class="st6" d="M-8.6,58.2c0-0.6-0.5-1-1-1c-0.6,0-1,0.5-1,1c0,0.6,0.5,1,1,1C-9,59.2-8.6,58.8-8.6,58.2z"/>
	</g>
	<g>
		<path class="st7" d="M2.8,41.9c0-3-2.4-5.4-5.4-5.4c-3,0-5.4,2.4-5.4,5.4c0,3,2.4,5.4,5.4,5.4C0.4,47.2,2.8,44.8,2.8,41.9z"/>
		<path class="st16" d="M2.6,42c0-2.6-2.1-4.8-4.8-4.8c-2.6,0-4.8,2.1-4.8,4.8c0,2.6,2.1,4.8,4.8,4.8C0.5,46.8,2.6,44.7,2.6,42z"/>
		<path class="st17" d="M2.4,42.2c0-2.3-1.9-4.2-4.2-4.2c-2.3,0-4.2,1.9-4.2,4.2c0,2.3,1.9,4.2,4.2,4.2C0.6,46.4,2.4,44.5,2.4,42.2z
			"/>
		<path class="st18" d="M2.3,42.4c0-2-1.6-3.6-3.6-3.6c-2,0-3.6,1.6-3.6,3.6c0,2,1.6,3.6,3.6,3.6C0.6,45.9,2.3,44.3,2.3,42.4z"/>
		<path class="st19" d="M2.1,42.5c0-1.7-1.3-3-3-3c-1.7,0-3,1.3-3,3c0,1.6,1.3,3,3,3C0.7,45.5,2.1,44.2,2.1,42.5z"/>
		<path class="st6" d="M1.9,42.7c0-1.3-1.1-2.4-2.4-2.4s-2.4,1.1-2.4,2.4c0,1.3,1.1,2.4,2.4,2.4S1.9,44,1.9,42.7z"/>
	</g>
</symbol>
<g>
	<rect x="0" y="-12.6" class="st20" width="48.4" height="88.5"/>
	<path class="st31" d="M9.2,37.7c0-0.7,0.1-1.1,0.2-1.1c0.6-0.7,1-1,1.2-1h0.6c0.7,0,1.4,0.4,2.3,1.2h0.1c0.3,0,0.7-0.3,1.2-0.9
		c0.3-0.1,0.5-0.2,0.5-0.3c0-0.4-0.4-1.1-1.2-2l-0.9-1.2c-0.8-1-1.2-1.7-1.2-2.2L12,30.3h-0.1c-0.1-0.4-0.2-0.6-0.4-0.6
		c0-0.4-0.2-1.1-0.5-2.3l-0.2-1.5c0-0.4,0.2-0.8,0.5-1.5c0-0.6,0.4-1.3,1.2-2.2c0.1,0,0.5-0.3,1-1c0-1,0.1-1.5,0.4-1.6
		c0.2-0.5,0.6-1.2,1.2-2c1-0.7,1.7-1.1,1.9-1.1l-0.1-0.1v-0.1l0.2-0.2h0.1c0-0.2-0.3-0.5-0.9-0.9c-0.1-0.2-0.2-0.4-0.4-0.5
		c-0.4-0.8-0.6-1.5-0.6-2c0-0.4,0.3-1,0.9-1.9c0.5-0.3,0.8-0.5,1-0.8l0.7-0.1H18c0.9,0,1.6,0.3,2.3,1c0.4,0.9,0.7,1.5,0.7,1.9
		c-0.1,0.3-0.4,1-1.1,2.2c-0.5,0.3-0.7,0.6-0.7,0.9v0.1c0,0.1,0.3,0.4,0.9,0.7c1.1,0.9,1.6,1.4,1.6,1.6c0.1,0,0.2,0.1,0.2,0.2H22
		l0.8,1.6c0,0.6,0.2,1.1,0.7,1.6c1,0.9,1.6,1.6,1.6,2.2c0.2,0,0.3,0.4,0.3,1.3V26c0,0.8-0.1,1.5-0.4,2.1c-0.1,0.5-0.5,1.5-1.4,3
		l-1.2,1.7l-1.3,1.5L21,34.5h-0.1l-0.1-0.1h-0.2v0.1c0.2,0,0.3,0.2,0.4,0.7c0.2,0,0.5,0.3,0.9,0.9c0.2,0.4,0.5,0.6,0.8,0.6l0.5-0.5
		c0.9-0.4,1.5-0.6,1.8-0.6c0.4,0,0.9,0.3,1.5,0.8l0.5,0.9C27,37.8,26.9,38,26.8,38v0.1l0.1,0.1c-0.4,0.8-0.8,1.2-1.3,1.2h-0.3
		c-1.1,0-2-0.4-2.6-1.3h-0.3c0,0.2-0.3,0.5-0.9,1c-0.1,0.2-0.3,0.4-0.6,0.5c0,0.3,0.3,0.8,0.9,1.4c1.2,1.4,1.8,2.2,1.8,2.3l0.7,1.2
		c0.1,0.1,0.3,0.5,0.5,1.2l0.5,1.2l0.2,1.7v0.6c0,1.4-0.9,2.8-2.6,4.4l-0.1,0.3l0.1,0.1v0.3c0,0.4-0.2,0.8-0.5,1.1
		c-0.1,0.7-0.8,1.6-2.2,2.7c-0.6,0.3-0.9,0.5-0.9,0.6v0.2c1,0.9,1.5,1.5,1.5,2c0.2,0,0.2,0.1,0.2,0.4v0.9c-0.1,0.7-0.5,1.3-1.1,1.9
		c-0.1,0.2-0.3,0.3-0.5,0.3c0,0.3-0.3,0.4-1,0.4H18c-0.6,0-1.2-0.3-1.8-0.9c-0.2,0-0.4-0.6-0.6-1.6h-0.2v-0.6l0.1,0.1h0.1
		c0.3-1.2,0.6-1.8,0.9-1.8c0-0.1,0.2-0.4,0.5-0.8v-0.4c0-0.1-0.3-0.4-1-0.8c-0.9-0.7-1.3-1.2-1.3-1.4l-0.1,0.1h-0.1l-0.8-1.4
		c-0.2-0.1-0.3-0.6-0.4-1.5v-0.2c-0.2,0-0.3-0.1-0.3-0.3c-0.5-0.2-1-0.7-1.5-1.4c-0.5-0.9-0.8-1.8-0.8-2.7v-0.2
		c0-0.8,0.3-1.9,0.8-3.2l0.2-0.2h-0.1l1.2-2.3c0.1,0,0.3-0.2,0.5-0.5c1-1.4,1.7-2.1,1.9-2.1l0.2,0.3c0,0.1-0.2,0.4-0.5,0.7
		c0,0.2-0.1,0.2-0.2,0.2c0,0.2-0.2,0.5-0.5,0.9l-0.5,0.6c-0.9,1.9-1.4,3.2-1.4,3.8v0.5h-0.2l-0.2,1.7c0.1,0.8,0.2,1.2,0.2,1.2
		l0.4,1.2l0.1-0.1h0.1c0,0.2,0.1,0.5,0.4,0.7H13c0.2,0,0.4-0.8,0.5-2.4l0.7-2c0.5-1.2,1.1-2.2,1.6-3c0.4-0.5,0.7-0.9,0.9-1.1
		c0.2-0.4,0.4-0.8,0.7-1c0-0.1-0.2-0.4-0.5-0.8l0.1-0.1c-0.1,0-0.5-0.3-1-0.9c-0.6-0.4-0.9-0.8-0.9-1.2c-0.2,0-0.2-0.1-0.2-0.2
		c-0.6-0.7-1.1-1.3-1.7-1.7c-0.5-0.5-0.8-0.9-0.8-1.1h-0.1v0.2h-0.1c0-0.3-0.4-0.5-1.2-0.7h-0.5c-0.6,0-0.9,0.3-0.9,0.9H9.7v0.2h0.2
		c0.3,0.6,0.7,0.9,1.2,0.9l2-0.2l0.1,0.1v0.3c0,0.1-0.2,0.2-0.7,0.2c-0.3,0.4-0.7,0.5-1.2,0.5c-0.7,0-1.2-0.3-1.6-0.9
		C9.3,38.2,9.2,37.9,9.2,37.7z M12,28c0,0.5,0.2,1,0.5,1.4l0.6,1.2c0.8,1.2,1.3,1.9,1.5,2l1.2,1.4l0.5,0.3v-0.1
		c0-0.1,0.3-0.4,0.8-0.9c0.2-0.4,0.5-0.5,0.6-0.5v-0.2c-0.1,0-0.4-0.3-0.9-1c-0.2-0.1-0.6-0.6-1.2-1.5c-0.3-0.5-0.4-0.9-0.5-1.4
		c-0.2,0-0.5-0.4-0.6-1.2c-0.2-0.3-0.5-1-0.8-2c-0.3-0.8-0.4-1.5-0.4-2.3v-0.2h-0.2v-0.3l-0.1-0.4h-0.3l-0.5,1L11.6,25
		c-0.1,0-0.1,0.3-0.2,0.8l0.2,0.6C11.8,27.5,11.9,28,12,28z M16.7,30L16.7,30l0.2-0.1c0,0.2,0.4,0.7,1.1,1.7h0.3
		c0-0.2,0.2-0.3,0.4-0.3c0.5-0.6,0.9-1.2,1.2-1.7c0.1,0,0.2-0.3,0.4-0.8l0.1,0.1h0.1l1.1-2.2c0-0.3,0.1-0.6,0.2-0.8
		c0.2-0.5,0.2-0.9,0.2-1.3v-0.2c0.2,0,0.2-0.5,0.2-1.4l0.2-0.7c0-0.3-0.2-0.5-0.6-0.7c-0.9,0-1.8,0.2-2.7,0.6v0.2
		c0,0.3,0.2,0.7,0.5,1.4l0.4,1.4v0.5c0,0.3-0.3,0.9-0.8,1.6c-0.5,0.4-0.9,0.5-1.1,0.5c-0.5,0-1.1-0.4-1.6-1.1c0-0.4-0.1-0.6-0.2-0.6
		v-0.9h0.2v-0.1c0-0.9,0.2-1.6,0.6-2c0-0.1,0.1-0.3,0.2-0.4c0.2-0.2,0.2-0.4,0.2-0.5c-0.8-0.4-1.5-0.6-2-0.6l-0.1-0.1
		c-0.2,0-0.2-0.1-0.2-0.2h-0.9c0,0.1-0.1,0.2-0.2,0.2l-0.2,0.4c0,1.3,0.3,2.7,0.9,4.1c0.4,1.1,0.9,2,1.5,2.9
		C16.6,29.6,16.7,29.9,16.7,30z M14.2,53.2h0.5l0.9,0.1l1.3-0.4c0-0.1,0.1-0.2,0.2-0.2l0.1-0.1v-0.2c0-0.3-0.1-0.7-0.4-1
		c-0.1,0-0.2-0.4-0.3-1.2V50h-0.2v-0.4l-0.1-0.3l0.1-0.3v-0.2c0.1,0,0.2-0.3,0.4-0.9h0.2c0-0.3,0.4-0.5,1.2-0.8
		c0.3,0,0.6,0.1,0.9,0.4l0.1-0.1c0.5,0.5,0.7,1,0.7,1.4l0.1-0.1h0.1l0.1,0.5L19.5,51l-0.4,0.9L19,51.8h-0.1l-0.2,0.7l1.3,0.6h0.5
		c0.5,0,0.8,0.1,0.8,0.2h0.2c0-0.1,0.2-0.2,0.6-0.3l0.1-0.2c0-1.2-0.1-2.2-0.3-2.7c-0.1,0-0.2-0.3-0.2-1c-0.1,0-0.3-0.3-0.4-0.9
		c-0.2,0-0.3-0.3-0.3-0.7c-0.5-0.7-0.9-1.4-1.1-2h-0.2c0-0.2-0.2-0.4-0.5-0.6c0-0.2-0.2-0.4-0.5-0.9c0-0.2-0.1-0.2-0.3-0.2v-0.1h0.2
		v-0.1c-0.2,0-0.3-0.2-0.5-0.5l-0.3-0.1c0,0.1-0.3,0.5-0.9,1c-1.6,2.4-2.3,4-2.3,4.7c-0.2,0-0.2,0.2-0.2,0.7
		c-0.4,0.6-0.5,1.6-0.5,3.1C14,53,14.1,53.2,14.2,53.2z M14.4,21l0.9-0.1c0.9,0,1.8,0.3,2.7,0.9l0.1-0.1h0.1v0.1l2.2-0.9l0.9-0.1
		l0.5,0.1l0.4-0.2v-0.5c-0.7-1.1-1.2-1.7-1.5-2h-0.2c-0.2-0.3-0.7-0.8-1.7-1.6c-0.2-0.2-0.5-0.2-0.9-0.2c-0.7,0.5-1.1,0.7-1.2,0.7
		v0.2c-0.1,0-0.4,0.2-0.7,0.5c-0.1,0-0.3,0.2-0.5,0.5c-0.1,0-0.2,0.1-0.2,0.2c-0.1,0-0.5,0.5-1.2,1.6c-0.1,0-0.1,0.2-0.2,0.5v0.1
		C14,20.9,14.1,21,14.4,21z M18.3,58.4c0.2,0,0.5-0.2,0.7-0.5c0.2,0,0.6-0.2,1.1-0.7c0.9-0.8,1.4-1.4,1.6-1.8c0.4-0.6,0.6-1,0.6-1.2
		v-0.2c0-0.1-0.1-0.2-0.4-0.2l-1.5,0.1c-1.2-0.4-1.9-0.6-2.1-0.8l-0.1-0.1v0.1l-0.1-0.1H18l-1.6,0.6c-0.3,0.2-0.6,0.2-1,0.2
		l-1.2-0.1l-0.2,0.1v0.2c0,0.3,0.2,0.7,0.7,1.4c0,0.2,0.6,0.9,1.9,2C17.3,58.1,17.9,58.4,18.3,58.4z M16.2,39.3
		c0.1,0,0.3-0.2,0.5-0.6c0.2,0,0.2-0.1,0.2-0.2c0.4-0.2,0.5-0.4,0.5-0.5h0.1v0.2h0.1V38h0.2v0.1c0,0.3-0.4,0.7-1.1,1.2h-0.1l0.1,0.1
		v0.1h-0.2v0.1l-0.1-0.1h-0.2v0.1c0.2,0,0.2,0.1,0.2,0.4l1.4,1.6v0.1h0.3c0-0.1,0.2-0.3,0.5-0.5c0.4-0.4,0.7-0.6,0.9-0.6
		c0,0.4-0.3,0.9-0.9,1.4c0,0.2-0.1,0.3-0.2,0.3c0.1,0.3,0.4,0.7,0.9,1.1l1.4,2.2c0,0.2,0.3,1,1,2.3c0.1,0,0.3,0.5,0.5,1.5
		c0.2,0,0.3,0.6,0.5,1.8l-0.1,1.2c0.2,0,0.2,0.1,0.2,0.2h0.2c0.9-1.2,1.3-2.2,1.3-3l0.1,0.1h0.1v-1.2h-0.2v-0.1
		c0-0.6-0.4-1.8-1.1-3.5L23,44.2c-0.5-0.9-0.9-1.5-1.2-1.7l-0.7-0.8c-0.4-0.7-0.9-1.1-1.5-1.4c0-0.5-0.3-1-0.8-1.3
		c-0.4-0.6-0.7-0.9-0.9-0.9c0-0.2-0.4-0.7-1.1-1.4l-0.1-0.1c-0.4-0.6-0.8-0.9-1.2-0.9h-0.2c0,0.5-0.3,0.8-0.9,1.1l-0.1,0.5
		c0,0.2,0.3,0.6,0.9,1.1C15.5,38.8,15.8,39.1,16.2,39.3z M15.9,13.2H16v0.2c0,0.7,0.4,1.2,1.3,1.7l0.5,0.5v0.1h0.4
		c0-0.1,0.2-0.2,0.6-0.4l0.7-0.8L20,13c-0.3-1.3-0.8-2-1.5-2c-0.4,0-0.7-0.1-0.9-0.2c-0.4,0-0.9,0.5-1.6,1.4h-0.1V13.2z M16.3,62.3
		c0.1,0,0.2,0.3,0.3,0.8c0.2,0,0.2,0.1,0.2,0.3c0.6,0.4,1.1,0.5,1.4,0.5h0.2c0.4,0,0.9-0.3,1.3-0.8l0.1,0.1c0.2-0.4,0.3-0.6,0.3-0.9
		v-1.2c-0.1-0.3-0.3-0.4-0.5-0.4l0.1-0.1v-0.1c-0.2,0-0.5-0.3-0.9-0.9c-0.6-0.2-0.9-0.3-0.9-0.4h-0.3c0,0.1-0.2,0.3-0.5,0.4
		c0,0.1-0.2,0.4-0.6,0.9l-0.1,0.9l-0.1-0.1h-0.1V62.3z M16.7,35L16.7,35c0,0.1,0.5,0.6,1.3,1.7c0.3-0.1,0.8-0.5,1.3-1.1
		c0.2,0,0.2-0.1,0.2-0.2h0.3v-0.1l-0.2-0.2c-0.5-0.7-0.9-1.3-1.4-1.7l-0.1-0.1h-0.1l0.1-0.1v-0.1h-0.4l-0.2,0.4l-0.1-0.1h-0.1
		c0,0.2-0.3,0.5-1,1.1v0.2L16.7,35z M17.3,26.3c0.2,0.4,0.4,0.7,0.7,0.9v0.1h0.4c0-0.1,0.2-0.3,0.5-0.4c0-0.3,0.1-0.4,0.2-0.4
		l0.1-1.1c0-0.7-0.1-1-0.2-1c-0.2-0.5-0.4-1-0.8-1.3H18c-0.2,0-0.5,0.7-0.9,2.2v0.1C17.1,26,17.2,26.3,17.3,26.3z M18,51.9h0.2
		c0.3-0.3,0.6-0.8,0.8-1.5h0.1v-0.9c-0.1,0-0.2-0.1-0.2-0.3c0-0.3,0.1-0.5,0.2-0.5c-0.2-0.5-0.5-0.8-0.9-1.1v-0.1H18
		c-0.4,0.2-0.6,0.4-0.7,0.6c-0.1,0-0.1,0.1-0.2,0.4l0.1,0.5l-0.1,0.7v0.3C17.5,51.2,17.8,51.8,18,51.9z M18.7,37.3
		c0.2,0.2,0.5,0.5,0.7,0.9c0.1,0,0.4,0.3,0.9,0.9c0.3,0,0.5-0.1,0.6-0.3c0.6-0.7,0.9-1.1,0.9-1.4c0-0.2-0.3-0.5-0.9-0.9
		c0-0.3-0.3-0.5-0.9-0.6c-0.3,0.5-0.7,0.8-1.1,1L18.7,37.3z M18.9,32.8L18.9,32.8l0.2-0.1c0,0.2,0.2,0.4,0.5,0.6
		c0,0.1,0.3,0.5,0.9,1h0.3c0-0.3,0.2-0.7,0.7-1.2l1.4-1.9c0.4-0.6,0.8-1.7,1.2-3.3l0.4-1.6c-0.1-1-0.2-1.7-0.4-2.1
		c0-0.6-0.3-1.1-1-1.7v-0.1h-0.1L23,22.7L23,22.6h-0.1l-0.1,0.5v1.2l-0.9,2.7c-0.2,0.3-0.4,0.8-0.6,1.4l-0.1-0.1h-0.1l-0.4,0.9
		l-1,1.5c0,0.2-0.3,0.6-0.9,1.2v0.1L18.9,32.8z M24.6,38.6l1.2,0.1l0.5-0.6L26.2,38c0.3-0.1,0.4-0.3,0.4-0.6
		c-0.8-0.6-1.3-0.9-1.6-0.9l-1.5,0.2h-0.1c0,0.1-0.1,0.2-0.3,0.2L23.1,37v0.1c0.4,0.9,0.8,1.3,1.2,1.3L24.6,38.6z"/>
</g>
<g class="st29">
	<rect x="31.2" y="14.7" class="st20" width="145.7" height="51.1"/>
	<path class="st33" d="M81.6,57.3c3.1,0,3.7-1.2,4-1.4c0.3-0.2,0.4,0.3-0.3,1c-0.7,0.7-1.9,1.5-3.9,1.4c-2.3-0.1-6.3-0.7-8.9-8
		c-1.9-5.4-3-9.1-3.4-10.3c-1.4,1-2.6,1.6-3.4,1.9l-0.5,1c-5.9,11.8-12.7,17.2-20.5,16.5c-5-0.4-8.9-3.2-8.8-8.7
		c0.1-2.9,1.1-4,1.7-4.8c0.3-0.4,0.1,0.2,0.1,0.5c-1.4,5,1,11.6,8.8,11.6c6.8,0,9.8-2,15.8-13.9c1.3-2.6,6.6-15.5,8.8-20.8
		c1.8-4.3,3.4-7.6,3.1-7.5c-6.4,2.7-9.8-0.6-16.2-0.5c-6.1,0.1-11.9,1.6-11.9,10.1c0,5.2,3.5,8.2,7,8.3c0.5,0,0.7-0.1,0.7,0
		c0,0.1-0.2,0.3-0.7,0.5c-2.8,1.1-8.8-0.8-8.8-8.1c0-10.4,11.2-12.8,15.2-12.7c5.6,0.1,8.1,1.7,10.9,1.7c3.1,0,4.7-0.2,5.3-1.1
		c0.2-0.3,1.6-0.4,1.5,0c-0.1,0.2-7.3,18.2-11.2,26.7c3.2-1.1,8.5-7.3,13.9-13.1c5.9-6.4,11.2-9.6,15.8-9.6c3.1,0,4.9,1.5,4.8,3.3
		c-0.2,2.1-2.2,3.5-1.9,2.6c1-3.3-0.8-5.3-3.2-5.3c-6.6,0-14.3,11.8-22,17.9c-1,0.8-1.8,1.4-2.6,2C72.1,43.4,75.7,57.3,81.6,57.3z"
		/>
	<path class="st33" d="M106.6,57.3c1.4,0,3.1-1.6,3.3-1.8c0.2-0.2,0.5,0.4,0.4,0.5c-0.2,0.2-1.9,2.5-5.3,2.5c-1,0-2.6-0.8-2.6-3.7
		c-0.1-1.2,0.3-2.8,0.7-4.6c-1.9,3.7-5.1,8.5-9.9,8.2c-5-0.3-6.2-8.5-0.8-15.8c2.9-3.9,7.4-5.2,9.8-5.3c3.3-0.1,4.4,1.1,4.7,1.9
		c0.1-0.4,0.2-0.8,0.4-1.3c0.2-0.7,2.1-0.8,1.9-0.3c-0.1,0.3-3.3,8.8-4.1,12.2C104.1,54,104,57.3,106.6,57.3z M96.6,40.1
		c-2.9,1.9-6.2,6.4-5.5,12.4c0.5,4.6,3.8,5.2,6.5,3.4c3.5-2.3,6.7-9.6,8.5-14.7C106.6,39.3,101.5,36.7,96.6,40.1z"/>
	<path class="st33" d="M116.2,57.7c-0.4,0.7-3.1,1-2.8,0.4c0.4-0.8,3.4-8.3,4.7-12.3c1.5-4.3,1.3-7.6-0.1-7.6
		c-1.7,0.1-2.2,1.1-2.1,2c0.1,0.8-0.7,0.7-0.8,0c-0.2-1.3,1.7-2.9,3.7-2.9c1.4,0,2.5,0.5,2.3,2.5c-0.1,2-2.6,10-3.6,12.7
		c-0.7,1.9-0.2,1.9,0.2,0.8c2-4.2,7-16,12.5-16c2.9,0,2.3,3.8,1.1,5.3c-0.2,0.2-0.6,0.1-0.6-0.5c0-0.9-0.4-2.4-2.5-2.4
		c-2.9,0-6.5,7.2-9.6,12.8C117.5,55.2,116.4,57.5,116.2,57.7z"/>
	<path class="st33" d="M149,40.3c-0.1,0.8-0.8,2-1,1.3c-0.2-1.1-1.3-3-3.8-3.2c-4.3-0.3-9.1,6.6-10,12.7c-1,7.3,5.3,7.9,9.5,2.4
		c4.4-5.8,7.1-14,7.7-20.9c1-11.1-2.7-17-7.9-17c-5.5,0-9,7.7-5.7,10.5c0.7,0.5,1.3,0.7,1,0.8c-0.5,0.2-1,0.3-1.5,0.2
		c-4.3-0.3-3.8-6.8,0.5-10.2c3.7-2.9,8.9-3.1,12.1-0.1c8.8,8.1,1.9,31.7-7,38.9c-4.7,3.8-12.2,4.3-11.2-3.4
		c1.2-9.5,7.9-14.9,13.4-15C146.9,37.3,149.2,38.1,149,40.3z"/>
	<path class="st33" d="M158.2,57.3c3.2,0,4.9-2.9,4.9-5.3c0-1.4-1.1-5.9-1.1-7.9c0-5.8,4.3-6.7,6.1-6.7c1.9,0,3,0.8,3,2.5
		c0,2.7-1.9,3.7-1.7,1.8c0.2-1.9-1.5-2.9-3.4-2.9c-1.7,0-2,1.6-2,2.9c0,2.4,1.4,7.1,1.4,8.7c0,4.7-4.9,8.1-8.8,8.1
		c-5.6,0-6.7-5.3-4.5-8.7c1.4-2.2,1.6-0.7,1.3-0.2C152.1,51.6,154.2,57.3,158.2,57.3z"/>
</g>
</svg>
